<mxfile host="app.diagrams.net" agent="Mozilla/5.0 (Windows NT 10.0; Win64; x64) AppleWebKit/537.36 (KHTML, like Gecko) Chrome/139.0.0.0 Safari/537.36 Edg/139.0.0.0" version="28.1.1">
  <diagram id="C5RBs43oDa-KdzZeNtuy" name="Page-1">
    <mxGraphModel dx="647" dy="948" grid="1" gridSize="10" guides="1" tooltips="1" connect="1" arrows="1" fold="1" page="1" pageScale="1" pageWidth="5000" pageHeight="5000" math="0" shadow="0">
      <root>
        <mxCell id="WIyWlLk6GJQsqaUBKTNV-0" />
        <mxCell id="WIyWlLk6GJQsqaUBKTNV-1" parent="WIyWlLk6GJQsqaUBKTNV-0" />
        <mxCell id="7SP18OyOGMkK_IZeQcpm-6" style="edgeStyle=orthogonalEdgeStyle;rounded=0;orthogonalLoop=1;jettySize=auto;html=1;fontSize=16;" edge="1" parent="WIyWlLk6GJQsqaUBKTNV-1" source="7SP18OyOGMkK_IZeQcpm-1" target="7SP18OyOGMkK_IZeQcpm-2">
          <mxGeometry relative="1" as="geometry" />
        </mxCell>
        <mxCell id="7SP18OyOGMkK_IZeQcpm-1" value="开始" style="rounded=1;whiteSpace=wrap;html=1;fontSize=16;" vertex="1" parent="WIyWlLk6GJQsqaUBKTNV-1">
          <mxGeometry x="120" y="20" width="120" height="40" as="geometry" />
        </mxCell>
        <mxCell id="7SP18OyOGMkK_IZeQcpm-4" style="edgeStyle=orthogonalEdgeStyle;rounded=0;orthogonalLoop=1;jettySize=auto;html=1;entryX=0.5;entryY=0;entryDx=0;entryDy=0;fontSize=16;" edge="1" parent="WIyWlLk6GJQsqaUBKTNV-1" source="7SP18OyOGMkK_IZeQcpm-2" target="7SP18OyOGMkK_IZeQcpm-3">
          <mxGeometry relative="1" as="geometry" />
        </mxCell>
        <mxCell id="7SP18OyOGMkK_IZeQcpm-5" value="数据获取" style="edgeLabel;html=1;align=center;verticalAlign=middle;resizable=0;points=[];fontSize=16;" vertex="1" connectable="0" parent="7SP18OyOGMkK_IZeQcpm-4">
          <mxGeometry x="-0.0167" y="2" relative="1" as="geometry">
            <mxPoint as="offset" />
          </mxGeometry>
        </mxCell>
        <mxCell id="7SP18OyOGMkK_IZeQcpm-2" value="选择数据源&lt;div&gt;（网络/本地）&lt;/div&gt;" style="rounded=0;whiteSpace=wrap;html=1;fontSize=16;" vertex="1" parent="WIyWlLk6GJQsqaUBKTNV-1">
          <mxGeometry x="120" y="120" width="120" height="40" as="geometry" />
        </mxCell>
        <mxCell id="7SP18OyOGMkK_IZeQcpm-9" style="edgeStyle=orthogonalEdgeStyle;rounded=0;orthogonalLoop=1;jettySize=auto;html=1;entryX=0.5;entryY=0;entryDx=0;entryDy=0;fontSize=16;" edge="1" parent="WIyWlLk6GJQsqaUBKTNV-1" source="7SP18OyOGMkK_IZeQcpm-3" target="7SP18OyOGMkK_IZeQcpm-8">
          <mxGeometry relative="1" as="geometry" />
        </mxCell>
        <mxCell id="7SP18OyOGMkK_IZeQcpm-3" value="格式标准化" style="rounded=0;whiteSpace=wrap;html=1;fontSize=16;" vertex="1" parent="WIyWlLk6GJQsqaUBKTNV-1">
          <mxGeometry x="120" y="220" width="120" height="40" as="geometry" />
        </mxCell>
        <mxCell id="7SP18OyOGMkK_IZeQcpm-13" style="edgeStyle=orthogonalEdgeStyle;rounded=0;orthogonalLoop=1;jettySize=auto;html=1;entryX=0.5;entryY=0;entryDx=0;entryDy=0;fontSize=16;" edge="1" parent="WIyWlLk6GJQsqaUBKTNV-1" source="7SP18OyOGMkK_IZeQcpm-8" target="7SP18OyOGMkK_IZeQcpm-10">
          <mxGeometry relative="1" as="geometry" />
        </mxCell>
        <mxCell id="7SP18OyOGMkK_IZeQcpm-8" value="数据清洗" style="rounded=0;whiteSpace=wrap;html=1;fontSize=16;" vertex="1" parent="WIyWlLk6GJQsqaUBKTNV-1">
          <mxGeometry x="120" y="320" width="120" height="40" as="geometry" />
        </mxCell>
        <mxCell id="7SP18OyOGMkK_IZeQcpm-12" style="edgeStyle=orthogonalEdgeStyle;rounded=0;orthogonalLoop=1;jettySize=auto;html=1;entryX=0.5;entryY=0;entryDx=0;entryDy=0;fontSize=16;" edge="1" parent="WIyWlLk6GJQsqaUBKTNV-1" source="7SP18OyOGMkK_IZeQcpm-10" target="7SP18OyOGMkK_IZeQcpm-11">
          <mxGeometry relative="1" as="geometry" />
        </mxCell>
        <mxCell id="7SP18OyOGMkK_IZeQcpm-16" style="edgeStyle=orthogonalEdgeStyle;rounded=0;orthogonalLoop=1;jettySize=auto;html=1;entryX=0.5;entryY=0;entryDx=0;entryDy=0;fontSize=16;" edge="1" parent="WIyWlLk6GJQsqaUBKTNV-1" source="7SP18OyOGMkK_IZeQcpm-10" target="7SP18OyOGMkK_IZeQcpm-15">
          <mxGeometry relative="1" as="geometry" />
        </mxCell>
        <mxCell id="7SP18OyOGMkK_IZeQcpm-10" value="清洗后的数据是否合格" style="rhombus;whiteSpace=wrap;html=1;fontSize=16;" vertex="1" parent="WIyWlLk6GJQsqaUBKTNV-1">
          <mxGeometry x="100" y="400" width="160" height="60" as="geometry" />
        </mxCell>
        <mxCell id="7SP18OyOGMkK_IZeQcpm-11" value="结束" style="rounded=1;whiteSpace=wrap;html=1;fontSize=16;" vertex="1" parent="WIyWlLk6GJQsqaUBKTNV-1">
          <mxGeometry x="120" y="520" width="120" height="40" as="geometry" />
        </mxCell>
        <mxCell id="7SP18OyOGMkK_IZeQcpm-19" style="edgeStyle=orthogonalEdgeStyle;rounded=0;orthogonalLoop=1;jettySize=auto;html=1;entryX=0.5;entryY=0;entryDx=0;entryDy=0;fontSize=16;" edge="1" parent="WIyWlLk6GJQsqaUBKTNV-1" source="7SP18OyOGMkK_IZeQcpm-15" target="7SP18OyOGMkK_IZeQcpm-17">
          <mxGeometry relative="1" as="geometry" />
        </mxCell>
        <mxCell id="7SP18OyOGMkK_IZeQcpm-15" value="文本分割" style="rounded=0;whiteSpace=wrap;html=1;fontSize=16;" vertex="1" parent="WIyWlLk6GJQsqaUBKTNV-1">
          <mxGeometry x="320" y="120" width="120" height="40" as="geometry" />
        </mxCell>
        <mxCell id="7SP18OyOGMkK_IZeQcpm-20" style="edgeStyle=orthogonalEdgeStyle;rounded=0;orthogonalLoop=1;jettySize=auto;html=1;entryX=0.5;entryY=0;entryDx=0;entryDy=0;fontSize=16;" edge="1" parent="WIyWlLk6GJQsqaUBKTNV-1" source="7SP18OyOGMkK_IZeQcpm-17" target="7SP18OyOGMkK_IZeQcpm-18">
          <mxGeometry relative="1" as="geometry" />
        </mxCell>
        <mxCell id="7SP18OyOGMkK_IZeQcpm-17" value="调用Embedding模型生成向量" style="rounded=0;whiteSpace=wrap;html=1;fontSize=16;" vertex="1" parent="WIyWlLk6GJQsqaUBKTNV-1">
          <mxGeometry x="320" y="220" width="120" height="40" as="geometry" />
        </mxCell>
        <mxCell id="7SP18OyOGMkK_IZeQcpm-22" style="edgeStyle=orthogonalEdgeStyle;rounded=0;orthogonalLoop=1;jettySize=auto;html=1;entryX=0.5;entryY=0;entryDx=0;entryDy=0;fontSize=16;" edge="1" parent="WIyWlLk6GJQsqaUBKTNV-1" source="7SP18OyOGMkK_IZeQcpm-18" target="7SP18OyOGMkK_IZeQcpm-21">
          <mxGeometry relative="1" as="geometry" />
        </mxCell>
        <mxCell id="7SP18OyOGMkK_IZeQcpm-18" value="数据持久化&lt;div&gt;（向量化数据以及元数据）&lt;/div&gt;" style="rounded=0;whiteSpace=wrap;html=1;fontSize=16;" vertex="1" parent="WIyWlLk6GJQsqaUBKTNV-1">
          <mxGeometry x="310" y="310" width="140" height="60" as="geometry" />
        </mxCell>
        <mxCell id="7SP18OyOGMkK_IZeQcpm-21" value="结束" style="rounded=1;whiteSpace=wrap;html=1;fontSize=16;" vertex="1" parent="WIyWlLk6GJQsqaUBKTNV-1">
          <mxGeometry x="320" y="440" width="120" height="40" as="geometry" />
        </mxCell>
      </root>
    </mxGraphModel>
  </diagram>
</mxfile>
